<!-- Generated by IcoMoon.io -->
<svg version="1.1" xmlns="http://www.w3.org/2000/svg" width="32" height="32" viewBox="0 0 32 32">
<title>exhausted-svgrepo-com</title>
<path d="M16 32c-8.822 0-16-7.178-16-16s7.178-16 16-16 16 7.178 16 16c0 8.823-7.178 16-16 16zM16 1.578c-7.952 0-14.422 6.47-14.422 14.422s6.47 14.422 14.422 14.422 14.422-6.47 14.422-14.422c0-7.952-6.47-14.422-14.422-14.422z"></path>
<path d="M17.995 20.043l-0.009 0.009-0.009-0.009-1.977 1.977-1.977-1.977-0.009 0.009-0.009-0.009-3.092 3.092 1.116 1.116 1.985-1.985 1.987 1.985 1.985-1.985 1.985 1.985 1.116-1.116z"></path>
<path d="M25.87 11.91l-1.116-1.116-1.608 1.608-1.608-1.608-1.116 1.116 1.608 1.608-1.608 1.608 1.116 1.116 1.608-1.608 1.608 1.608 1.116-1.116-1.607-1.608z"></path>
<path d="M11.473 11.91l-1.116-1.116-1.608 1.608-1.609-1.608-1.116 1.116 1.608 1.608-1.608 1.608 1.116 1.116 1.609-1.608 1.608 1.608 1.116-1.116-1.608-1.608z"></path>
</svg>
