<!-- Generated by IcoMoon.io -->
<svg version="1.1" xmlns="http://www.w3.org/2000/svg" fill='white' width="32" height="12" viewBox="0 0 32 32">
<title>checkmark-circle-2-outline-svgrepo-com</title>
<path d="M16 2.667c-7.364 0-13.333 5.97-13.333 13.333s5.97 13.333 13.333 13.333c7.364 0 13.333-5.97 13.333-13.333v0c0-7.364-5.97-13.333-13.333-13.333v0zM16 26.667c-5.891 0-10.667-4.776-10.667-10.667s4.776-10.667 10.667-10.667c5.891 0 10.667 4.776 10.667 10.667v0c0 5.891-4.776 10.667-10.667 10.667v0z"></path>
<path d="M19.6 11.187l-5.040 6.667-2.173-2.813c-0.247-0.315-0.627-0.515-1.053-0.515-0.737 0-1.335 0.598-1.335 1.335 0 0.31 0.106 0.596 0.284 0.823l-0.002-0.003 3.24 4.147c0.246 0.31 0.623 0.507 1.046 0.507 0.003 0 0.005 0 0.008-0h-0c0.428-0.001 0.808-0.203 1.051-0.517l0.002-0.003 6.093-8c0.171-0.223 0.275-0.506 0.275-0.813 0-0.741-0.601-1.341-1.341-1.341-0.434 0-0.819 0.206-1.064 0.525l-0.002 0.003z"></path>
</svg>
