<!-- Generated by IcoMoon.io -->
<svg version="1.1" xmlns="http://www.w3.org/2000/svg" width="32" height="32" viewBox="0 0 32 32">
<title>google-svgrepo-com-1</title>
<path fill="#ff7976" d="M16.361 0c-4.853 0-9.18 2.128-12.111 5.503-0.893 1.029-1.659 2.173-2.268 3.409l5.391 4.118c0.625-1.896 1.831-3.523 3.409-4.674 1.562-1.138 3.488-1.811 5.578-1.811 2.258 0 4.297 0.8 5.899 2.11l4.661-4.654c-2.84-2.474-6.481-4.001-10.56-4.001z"></path>
<path fill="#e3443a" d="M1.983 8.912l5.391 4.118c0.625-1.896 1.831-3.523 3.409-4.674 1.562-1.138 3.488-1.811 5.578-1.811 2.258 0 4.297 0.8 5.899 2.11l4.661-4.654c-2.841-2.472-6.482-4-10.56-4z"></path>
<path fill="#f4d72c" d="M6.894 16c0-0.147 0.011-0.293 0.017-0.438 0.042-0.881 0.199-1.73 0.463-2.532l-5.391-4.118c-0.991 2.011-1.566 4.263-1.631 6.649-0.004 0.146-0.013 0.292-0.013 0.438s0.009 0.293 0.012 0.439c0.065 2.384 0.64 4.634 1.628 6.643l5.39-4.126c-0.261-0.797-0.417-1.643-0.458-2.518-0.007-0.146-0.017-0.291-0.017-0.439z"></path>
<path fill="#f7b92b" d="M1.98 23.082l5.39-4.126c-0.261-0.797-0.417-1.643-0.458-2.518-0.007-0.146-0.017-0.292-0.017-0.439s0.011-0.293 0.017-0.438c0.042-0.881 0.199-1.73 0.463-2.532l-5.392-4.117z"></path>
<path fill="#59c96e" d="M21.683 24.055c-1.444 0.91-3.263 1.399-5.321 1.399-1.204 0-2.352-0.229-3.409-0.636-0.779-0.3-1.506-0.701-2.17-1.183-1.577-1.148-2.784-2.77-3.409-4.665l-5.391 4.117c0.608 1.235 1.372 2.376 2.264 3.404 2.931 3.378 7.261 5.508 12.115 5.508 1.468 0 2.911-0.196 4.289-0.578 2.291-0.636 4.402-1.786 6.15-3.409l-5.118-3.957z"></path>
<path fill="#40a557" d="M1.983 23.088c0.608 1.235 1.372 2.376 2.264 3.404 2.931 3.378 7.261 5.508 12.115 5.508 1.468 0 2.911-0.196 4.289-0.578 2.291-0.636 4.402-1.786 6.15-3.409l-5.118-3.957c-1.444 0.91-3.263 1.399-5.321 1.399-1.204 0-2.352-0.229-3.409-0.636-0.779-0.3-1.506-0.701-2.17-1.183z"></path>
<path fill="#0faef4" d="M31.292 12.919h-14.781v6.161h8.445c-0.43 2.054-1.599 3.92-3.273 4.975l5.118 3.957c1.404-1.303 2.57-2.938 3.408-4.829 0.92-2.072 1.446-4.554 1.446-7.281 0-0.945-0.145-1.956-0.364-2.982z"></path>
<path fill="#4087ed" d="M26.801 28.012c1.404-1.303 2.58-2.957 3.419-4.848 0.92-2.072 1.441-4.544 1.441-7.271 0-0.945-0.15-1.947-0.369-2.974h-0.919z"></path>
<path fill="#4087ed" d="M16.511 15.486v3.594h8.214z"></path>
</svg>
