<!-- Generated by IcoMoon.io -->
<svg version="1.1" xmlns="http://www.w3.org/2000/svg"  viewBox="0 0 32 32">
<title>house-svgrepo-com</title>
<path d="M31.733 20.547l-5.074-3.826v-1.537c0-0.211-0.099-0.409-0.267-0.536l-9.987-7.532c-0.239-0.18-0.569-0.18-0.808 0l-9.987 7.532c-0.168 0.127-0.267 0.325-0.267 0.536v1.537l-5.074 3.826c-0.168 0.127-0.267 0.325-0.267 0.536v6.781c0 0.371 0.3 0.671 0.671 0.671h30.657c0.371 0 0.671-0.3 0.671-0.671v-6.781c0-0.211-0.099-0.409-0.267-0.536zM16.726 27.193h-1.452v-3.384h1.452v3.384zM18.068 27.193v-4.055c0-0.371-0.3-0.671-0.671-0.671h-2.794c-0.371 0-0.671 0.3-0.671 0.671v4.055h-7.248v-11.675l9.316-7.025 9.316 7.025v11.675h-7.248zM1.343 21.417l3.999-3.015v8.791h-3.999v-5.776zM30.657 27.193h-3.999v-8.791l3.999 3.015v5.776z"></path>
<path d="M1.075 16.231l14.925-11.254 14.925 11.255c0.121 0.091 0.263 0.135 0.404 0.135 0.203 0 0.404-0.092 0.536-0.267 0.223-0.296 0.164-0.717-0.132-0.94l-15.329-11.559c-0.239-0.18-0.569-0.18-0.808 0l-15.329 11.559c-0.296 0.223-0.355 0.644-0.132 0.94s0.644 0.355 0.94 0.132z"></path>
</svg>
