<!-- Generated by IcoMoon.io -->
<svg version="1.1" xmlns="http://www.w3.org/2000/svg"  viewBox="0 0 32 32">
<title>delivery-truck-deliver-svgrepo-com</title>
<path d="M25.067 20c-1.765 0-3.2 1.435-3.2 3.2s1.435 3.2 3.2 3.2c1.765 0 3.2-1.435 3.2-3.2s-1.435-3.2-3.2-3.2zM25.067 25.333c-1.177 0-2.133-0.957-2.133-2.133s0.957-2.133 2.133-2.133c1.177 0 2.133 0.957 2.133 2.133s-0.957 2.133-2.133 2.133z"></path>
<path d="M6.933 20c-1.765 0-3.2 1.435-3.2 3.2s1.435 3.2 3.2 3.2 3.2-1.435 3.2-3.2c0-1.765-1.435-3.2-3.2-3.2zM6.933 25.333c-1.177 0-2.133-0.957-2.133-2.133s0.957-2.133 2.133-2.133 2.133 0.957 2.133 2.133-0.957 2.133-2.133 2.133z"></path>
<path d="M31.933 15.474l-2.667-4.8c-0.094-0.169-0.273-0.274-0.466-0.274h-6.4c-0.294 0-0.533 0.239-0.533 0.533v8h-1.067c0-4.027 0-11.2 0-11.2 0-1.177-0.957-2.133-2.133-2.133h-17.6c-0.294 0-0.533 0.239-0.533 0.533v12.267c-0.294 0-0.533 0.239-0.533 0.533v2.667c0 0.142 0.056 0.277 0.156 0.378s0.236 0.156 0.377 0.156l1.6-0c0 0 0.533 0 0.804-0.433 0.622-1.658 2.218-2.767 3.996-2.767 1.806 0 3.422 1.143 4.024 2.844 0.075 0.213 0.277 0.356 0.503 0.356h8.806c0.294 0 0.533-0.239 0.533-0.533 0-0 0-0.002 0-0.003 0-0.033 0-0.65 0-1.597h1.25c0.122 0 0.241-0.042 0.335-0.119 0.766-0.62 1.693-0.948 2.682-0.948 1.806 0 3.422 1.143 4.024 2.844 0.075 0.213 0.277 0.356 0.503 0.356h1.873c0.294 0 0.533-0.239 0.533-0.533v-5.867c0-0.091-0.023-0.18-0.067-0.259zM11.823 21.067v-0.001c-0.842-1.929-2.761-3.2-4.89-3.2s-4.046 1.27-4.889 3.198c-0.277 0.001-0.665 0.001-0.978 0.002v-1.6c0.294 0 0.533-0.239 0.533-0.533v-1.6h0.533c0.294 0 0.533-0.239 0.533-0.533s-0.239-0.533-0.533-0.533h-0.533v-4.267h14.179l-1.223 1.223c-0.209 0.209-0.209 0.546 0 0.754 0.104 0.104 0.241 0.156 0.377 0.156s0.273-0.052 0.377-0.156l2.133-2.133c0.209-0.209 0.209-0.546 0-0.754l-2.133-2.133c-0.209-0.209-0.546-0.209-0.754 0s-0.209 0.546 0 0.754l1.223 1.223h-14.179v-4.267h17.067c0.588 0 1.067 0.478 1.067 1.067v11.7c0 0.719 0 1.246 0.010 1.634h-7.921zM25.067 11.467h3.42l2.074 3.733h-5.494v-3.733zM30.933 17.333h-0.533c-0.294 0-0.533 0.239-0.533 0.533s0.239 0.533 0.533 0.533h0.533v2.667h-0.977c-0.842-1.929-2.761-3.2-4.89-3.2-0.737 0-1.465 0.155-2.133 0.446v-6.846h1.067v4.267c0 0.294 0.239 0.533 0.533 0.533h6.4v1.067z"></path>
</svg>
